<svg width="138" height="42" viewBox="0 0 138 42" fill="none" xmlns="http://www.w3.org/2000/svg">
<rect x="1" y="1" width="136" height="40" rx="4" stroke="#10002B"/>
<path fill-rule="evenodd" clip-rule="evenodd" d="M108.936 31H110.802V18.499H108.936V31ZM125.743 23.002L123.604 28.422H123.54L121.32 23.002H119.31L122.639 30.577L120.742 34.791H122.687L127.818 23.002H125.743ZM115.161 29.58C114.549 29.58 113.697 29.275 113.697 28.519C113.697 27.554 114.758 27.184 115.675 27.184C116.495 27.184 116.881 27.36 117.38 27.602C117.235 28.76 116.238 29.58 115.161 29.58ZM115.386 22.729C114.035 22.729 112.636 23.324 112.057 24.643L113.713 25.334C114.067 24.643 114.726 24.418 115.418 24.418C116.383 24.418 117.364 24.996 117.38 26.026V26.154C117.042 25.962 116.319 25.672 115.434 25.672C113.649 25.672 111.831 26.653 111.831 28.486C111.831 30.159 113.295 31.237 114.935 31.237C116.19 31.237 116.881 30.674 117.316 30.014H117.38V30.98H119.182V26.187C119.182 23.967 117.525 22.729 115.386 22.729ZM103.854 24.524H101.2V20.239H103.854C105.249 20.239 106.041 21.394 106.041 22.381C106.041 23.35 105.249 24.524 103.854 24.524ZM103.806 18.499H99.334V31H101.2V26.264H103.806C105.874 26.264 107.907 24.767 107.907 22.381C107.907 19.996 105.874 18.499 103.806 18.499ZM79.425 29.583C78.136 29.583 77.057 28.503 77.057 27.021C77.057 25.523 78.136 24.427 79.425 24.427C80.698 24.427 81.696 25.523 81.696 27.021C81.696 28.503 80.698 29.583 79.425 29.583ZM81.567 23.702H81.503C81.084 23.203 80.279 22.752 79.264 22.752C77.137 22.752 75.188 24.621 75.188 27.021C75.188 29.405 77.137 31.258 79.264 31.258C80.279 31.258 81.084 30.807 81.503 30.292H81.567V30.903C81.567 32.531 80.698 33.401 79.296 33.401C78.152 33.401 77.443 32.579 77.153 31.886L75.526 32.563C75.993 33.691 77.234 35.076 79.296 35.076C81.487 35.076 83.34 33.787 83.34 30.646V23.009H81.567V23.702ZM84.628 31H86.497V18.499H84.628V31ZM89.252 26.876C89.204 25.233 90.525 24.395 91.475 24.395C92.217 24.395 92.845 24.766 93.054 25.297L89.252 26.876ZM95.052 25.458C94.698 24.508 93.618 22.752 91.411 22.752C89.22 22.752 87.399 24.476 87.399 27.005C87.399 29.389 89.204 31.258 91.62 31.258C93.57 31.258 94.698 30.066 95.164 29.373L93.715 28.406C93.231 29.115 92.571 29.583 91.62 29.583C90.67 29.583 89.993 29.148 89.558 28.294L95.245 25.942L95.052 25.458ZM49.744 24.057V25.861H54.061C53.933 26.876 53.594 27.617 53.079 28.132C52.45 28.761 51.467 29.454 49.744 29.454C47.085 29.454 45.007 27.311 45.007 24.652C45.007 21.994 47.085 19.852 49.744 19.852C51.178 19.852 52.225 20.416 52.998 21.141L54.271 19.868C53.191 18.837 51.758 18.047 49.744 18.047C46.102 18.047 43.041 21.012 43.041 24.652C43.041 28.294 46.102 31.258 49.744 31.258C51.709 31.258 53.191 30.613 54.351 29.405C55.543 28.213 55.914 26.538 55.914 25.184C55.914 24.766 55.882 24.379 55.817 24.057H49.744ZM60.822 29.583C59.534 29.583 58.422 28.519 58.422 27.005C58.422 25.474 59.534 24.427 60.822 24.427C62.111 24.427 63.223 25.474 63.223 27.005C63.223 28.519 62.111 29.583 60.822 29.583ZM60.822 22.752C58.47 22.752 56.553 24.54 56.553 27.005C56.553 29.454 58.47 31.258 60.822 31.258C63.175 31.258 65.092 29.454 65.092 27.005C65.092 24.54 63.175 22.752 60.822 22.752ZM70.136 29.583C68.847 29.583 67.735 28.519 67.735 27.005C67.735 25.474 68.847 24.427 70.136 24.427C71.425 24.427 72.536 25.474 72.536 27.005C72.536 28.519 71.425 29.583 70.136 29.583ZM70.136 22.752C67.784 22.752 65.867 24.54 65.867 27.005C65.867 29.454 67.784 31.258 70.136 31.258C72.488 31.258 74.405 29.454 74.405 27.005C74.405 24.54 72.488 22.752 70.136 22.752Z" fill="#10002B"/>
<path fill-rule="evenodd" clip-rule="evenodd" d="M45.4965 10.9669C45.5085 11.9159 45.3175 12.6819 44.9275 13.2629H47.9605V8.73691H45.4965V10.9669ZM44.1135 15.2739H43.3765V13.2629H43.9635C44.4825 12.8159 44.7365 12.0499 44.7255 10.9669V7.99991H48.7315V13.2629H49.4015V15.2739H48.6645V13.9999H44.1135V15.2739Z" fill="white"/>
<path fill-rule="evenodd" clip-rule="evenodd" d="M45.4965 10.9669C45.5085 11.9159 45.3175 12.6819 44.9275 13.2629H47.9605V8.73691H45.4965V10.9669ZM44.1135 15.2739H43.3765V13.2629H43.9635C44.4825 12.8159 44.7365 12.0499 44.7255 10.9669V7.99991H48.7315V13.2629H49.4015V15.2739H48.6645V13.9999H44.1135V15.2739Z" fill="#10002B"/>
<path d="M45.4965 10.9669H45.3965L45.3965 10.9682L45.4965 10.9669ZM44.9275 13.2629L44.8444 13.2072L44.7399 13.3629H44.9275V13.2629ZM47.9605 13.2629V13.3629H48.0605V13.2629H47.9605ZM47.9605 8.73691H48.0605V8.63691H47.9605V8.73691ZM45.4965 8.73691V8.63691H45.3965V8.73691H45.4965ZM44.1135 15.2739V15.3739H44.2135V15.2739H44.1135ZM43.3765 15.2739H43.2765V15.3739H43.3765V15.2739ZM43.3765 13.2629V13.1629H43.2765V13.2629H43.3765ZM43.9635 13.2629V13.3629H44.0006L44.0287 13.3387L43.9635 13.2629ZM44.7255 10.9669H44.6255L44.6255 10.9679L44.7255 10.9669ZM44.7255 7.99991V7.89991H44.6255V7.99991H44.7255ZM48.7315 7.99991H48.8315V7.89991H48.7315V7.99991ZM48.7315 13.2629H48.6315V13.3629H48.7315V13.2629ZM49.4015 13.2629H49.5015V13.1629H49.4015V13.2629ZM49.4015 15.2739V15.3739H49.5015V15.2739H49.4015ZM48.6645 15.2739H48.5645V15.3739H48.6645V15.2739ZM48.6645 13.9999H48.7645V13.8999H48.6645V13.9999ZM44.1135 13.9999V13.8999H44.0135V13.9999H44.1135ZM45.3965 10.9682C45.4083 11.9038 45.2198 12.648 44.8444 13.2072L45.0105 13.3186C45.4151 12.7159 45.6086 11.928 45.5965 10.9656L45.3965 10.9682ZM44.9275 13.3629H47.9605V13.1629H44.9275V13.3629ZM48.0605 13.2629V8.73691H47.8605V13.2629H48.0605ZM47.9605 8.63691H45.4965V8.83691H47.9605V8.63691ZM45.3965 8.73691V10.9669H45.5965V8.73691H45.3965ZM44.1135 15.1739H43.3765V15.3739H44.1135V15.1739ZM43.4765 15.2739V13.2629H43.2765V15.2739H43.4765ZM43.3765 13.3629H43.9635V13.1629H43.3765V13.3629ZM44.0287 13.3387C44.5804 12.8636 44.8366 12.0613 44.8255 10.9659L44.6255 10.9679C44.6363 12.0385 44.3846 12.7682 43.8982 13.1871L44.0287 13.3387ZM44.8255 10.9669V7.99991H44.6255V10.9669H44.8255ZM44.7255 8.09991H48.7315V7.89991H44.7255V8.09991ZM48.6315 7.99991V13.2629H48.8315V7.99991H48.6315ZM48.7315 13.3629H49.4015V13.1629H48.7315V13.3629ZM49.3015 13.2629V15.2739H49.5015V13.2629H49.3015ZM49.4015 15.1739H48.6645V15.3739H49.4015V15.1739ZM48.7645 15.2739V13.9999H48.5645V15.2739H48.7645ZM48.6645 13.8999H44.1135V14.0999H48.6645V13.8999ZM44.0135 13.9999V15.2739H44.2135V13.9999H44.0135Z" fill="#10002B"/>
<path fill-rule="evenodd" clip-rule="evenodd" d="M51.5843 12.7223C52.0283 13.1723 52.5713 13.3963 53.2143 13.3963C53.8563 13.3963 54.4003 13.1723 54.8443 12.7223C55.2883 12.2723 55.5113 11.6983 55.5113 11.0003C55.5113 10.3023 55.2883 9.7273 54.8443 9.2783C54.4003 8.8283 53.8563 8.6033 53.2143 8.6033C52.5713 8.6033 52.0283 8.8283 51.5843 9.2783C51.1413 9.7273 50.9183 10.3023 50.9183 11.0003C50.9183 11.6983 51.1413 12.2723 51.5843 12.7223ZM55.4143 13.2243C54.8243 13.8313 54.0913 14.1343 53.2143 14.1343C52.3373 14.1343 51.6043 13.8313 51.0153 13.2243C50.4253 12.6183 50.1313 11.8773 50.1313 11.0003C50.1313 10.1233 50.4253 9.3813 51.0153 8.7753C51.6043 8.1693 52.3373 7.8663 53.2143 7.8663C54.0863 7.8663 54.8173 8.1703 55.4103 8.7793C56.0023 9.3883 56.2983 10.1283 56.2983 11.0003C56.2983 11.8773 56.0033 12.6183 55.4143 13.2243Z" fill="white"/>
<path fill-rule="evenodd" clip-rule="evenodd" d="M51.5843 12.7223C52.0283 13.1723 52.5713 13.3963 53.2143 13.3963C53.8563 13.3963 54.4003 13.1723 54.8443 12.7223C55.2883 12.2723 55.5113 11.6983 55.5113 11.0003C55.5113 10.3023 55.2883 9.7273 54.8443 9.2783C54.4003 8.8283 53.8563 8.6033 53.2143 8.6033C52.5713 8.6033 52.0283 8.8283 51.5843 9.2783C51.1413 9.7273 50.9183 10.3023 50.9183 11.0003C50.9183 11.6983 51.1413 12.2723 51.5843 12.7223ZM55.4143 13.2243C54.8243 13.8313 54.0913 14.1343 53.2143 14.1343C52.3373 14.1343 51.6043 13.8313 51.0153 13.2243C50.4253 12.6183 50.1313 11.8773 50.1313 11.0003C50.1313 10.1233 50.4253 9.3813 51.0153 8.7753C51.6043 8.1693 52.3373 7.8663 53.2143 7.8663C54.0863 7.8663 54.8173 8.1703 55.4103 8.7793C56.0023 9.3883 56.2983 10.1283 56.2983 11.0003C56.2983 11.8773 56.0033 12.6183 55.4143 13.2243Z" fill="#10002B"/>
<path d="M51.5843 12.7223L51.5131 12.7925L51.5132 12.7925L51.5843 12.7223ZM54.8443 9.2783L54.7732 9.34854L54.7732 9.34862L54.8443 9.2783ZM51.5843 9.2783L51.5132 9.20807L51.5132 9.20807L51.5843 9.2783ZM55.4143 13.2243L55.4861 13.294L55.4861 13.294L55.4143 13.2243ZM51.0153 13.2243L51.0871 13.1547L51.087 13.1545L51.0153 13.2243ZM51.0153 8.7753L51.087 8.84506L51.0871 8.845L51.0153 8.7753ZM55.4103 8.7793L55.4821 8.7096L55.482 8.70954L55.4103 8.7793ZM51.5132 12.7925C51.9764 13.262 52.5452 13.4963 53.2143 13.4963V13.2963C52.5975 13.2963 52.0803 13.0826 51.6555 12.6521L51.5132 12.7925ZM53.2143 13.4963C53.8825 13.4963 54.4523 13.262 54.9155 12.7925L54.7732 12.6521C54.3484 13.0826 53.8302 13.2963 53.2143 13.2963V13.4963ZM54.9155 12.7925C55.3799 12.3219 55.6113 11.7217 55.6113 11.0003H55.4113C55.4113 11.6749 55.1968 12.2227 54.7732 12.6521L54.9155 12.7925ZM55.6113 11.0003C55.6113 10.279 55.38 9.67773 54.9155 9.20799L54.7732 9.34862C55.1967 9.77687 55.4113 10.3256 55.4113 11.0003H55.6113ZM54.9155 9.20807C54.4524 8.73866 53.8826 8.5033 53.2143 8.5033V8.7033C53.8301 8.7033 54.3483 8.91795 54.7732 9.34854L54.9155 9.20807ZM53.2143 8.5033C52.5451 8.5033 51.9763 8.73868 51.5132 9.20807L51.6555 9.34854C52.0804 8.91793 52.5976 8.7033 53.2143 8.7033V8.5033ZM51.5132 9.20807C51.0497 9.67779 50.8183 10.279 50.8183 11.0003H51.0183C51.0183 10.3256 51.233 9.77681 51.6555 9.34854L51.5132 9.20807ZM50.8183 11.0003C50.8183 11.7217 51.0498 12.3218 51.5131 12.7925L51.6556 12.6521C51.2329 12.2228 51.0183 11.6749 51.0183 11.0003H50.8183ZM55.3426 13.1546C54.7722 13.7414 54.0655 14.0343 53.2143 14.0343V14.2343C54.1172 14.2343 54.8765 13.9212 55.4861 13.294L55.3426 13.1546ZM53.2143 14.0343C52.3632 14.0343 51.6565 13.7414 51.0871 13.1547L50.9436 13.2939C51.5522 13.9212 52.3115 14.2343 53.2143 14.2343V14.0343ZM51.087 13.1545C50.516 12.568 50.2313 11.8524 50.2313 11.0003H50.0313C50.0313 11.9022 50.3347 12.6686 50.9437 13.2941L51.087 13.1545ZM50.2313 11.0003C50.2313 10.1482 50.516 9.43157 51.087 8.84506L50.9437 8.70554C50.3347 9.33104 50.0313 10.0984 50.0313 11.0003H50.2313ZM51.0871 8.845C51.6564 8.25918 52.3632 7.9663 53.2143 7.9663V7.7663C52.3115 7.7663 51.5523 8.07943 50.9436 8.7056L51.0871 8.845ZM53.2143 7.9663C54.0601 7.9663 54.7651 8.25995 55.3387 8.84907L55.482 8.70954C54.8696 8.08066 54.1126 7.7663 53.2143 7.7663V7.9663ZM55.3386 8.84901C55.912 9.4388 56.1983 10.1536 56.1983 11.0003H56.3983C56.3983 10.103 56.0927 9.3378 55.4821 8.7096L55.3386 8.84901ZM56.1983 11.0003C56.1983 11.8523 55.9128 12.568 55.3426 13.1546L55.4861 13.294C56.0939 12.6686 56.3983 11.9023 56.3983 11.0003H56.1983Z" fill="#10002B"/>
<path fill-rule="evenodd" clip-rule="evenodd" d="M60.1791 14.1339C59.2961 14.1339 58.5561 13.8349 57.9581 13.2379C57.3601 12.6399 57.0621 11.8939 57.0621 10.9999C57.0621 10.1069 57.3601 9.36091 57.9581 8.76291C58.5561 8.16491 59.2961 7.86591 60.1791 7.86591C61.0831 7.86591 61.8191 8.19291 62.3831 8.84591L61.8461 9.36591C61.4391 8.85791 60.8821 8.60391 60.1791 8.60391C59.5251 8.60391 58.9731 8.82391 58.5241 9.26591C58.0741 9.70691 57.8491 10.2849 57.8491 10.9999C57.8491 11.7149 58.0741 12.2939 58.5241 12.7349C58.9731 13.1759 59.5251 13.3969 60.1791 13.3969C60.9001 13.3969 61.5141 13.1069 62.0231 12.5259L62.5591 13.0619C62.2841 13.3909 61.9421 13.6529 61.5281 13.8449C61.1151 14.0379 60.6641 14.1339 60.1791 14.1339Z" fill="white"/>
<path fill-rule="evenodd" clip-rule="evenodd" d="M60.1791 14.1339C59.2961 14.1339 58.5561 13.8349 57.9581 13.2379C57.3601 12.6399 57.0621 11.8939 57.0621 10.9999C57.0621 10.1069 57.3601 9.36091 57.9581 8.76291C58.5561 8.16491 59.2961 7.86591 60.1791 7.86591C61.0831 7.86591 61.8191 8.19291 62.3831 8.84591L61.8461 9.36591C61.4391 8.85791 60.8821 8.60391 60.1791 8.60391C59.5251 8.60391 58.9731 8.82391 58.5241 9.26591C58.0741 9.70691 57.8491 10.2849 57.8491 10.9999C57.8491 11.7149 58.0741 12.2939 58.5241 12.7349C58.9731 13.1759 59.5251 13.3969 60.1791 13.3969C60.9001 13.3969 61.5141 13.1069 62.0231 12.5259L62.5591 13.0619C62.2841 13.3909 61.9421 13.6529 61.5281 13.8449C61.1151 14.0379 60.6641 14.1339 60.1791 14.1339Z" fill="#10002B" stroke="#10002B" stroke-width="0.2"/>
<path fill-rule="evenodd" clip-rule="evenodd" d="M65.677 14.0001H64.906V8.73711H63.23V8.00011H67.353V8.73711H65.677V14.0001Z" fill="white"/>
<path fill-rule="evenodd" clip-rule="evenodd" d="M65.677 14.0001H64.906V8.73711H63.23V8.00011H67.353V8.73711H65.677V14.0001Z" fill="#10002B" stroke="#10002B" stroke-width="0.2"/>
<path fill-rule="evenodd" clip-rule="evenodd" d="M72.6464 8.00011L70.3754 13.0621C70.0624 13.7761 69.5974 14.1341 68.9774 14.1341C68.7924 14.1341 68.5944 14.0891 68.3814 14.0001L68.5824 13.2881C68.7114 13.3601 68.8454 13.3961 68.9844 13.3961C69.1634 13.3961 69.3024 13.3621 69.3994 13.2921C69.4974 13.2221 69.5884 13.0951 69.6724 12.9111L69.8904 12.4331L67.8704 8.00011H68.7754L70.2584 11.4441H70.2924L71.7414 8.00011H72.6464Z" fill="white"/>
<path fill-rule="evenodd" clip-rule="evenodd" d="M72.6464 8.00011L70.3754 13.0621C70.0624 13.7761 69.5974 14.1341 68.9774 14.1341C68.7924 14.1341 68.5944 14.0891 68.3814 14.0001L68.5824 13.2881C68.7114 13.3601 68.8454 13.3961 68.9844 13.3961C69.1634 13.3961 69.3024 13.3621 69.3994 13.2921C69.4974 13.2221 69.5884 13.0951 69.6724 12.9111L69.8904 12.4331L67.8704 8.00011H68.7754L70.2584 11.4441H70.2924L71.7414 8.00011H72.6464Z" fill="#10002B" stroke="#10002B" stroke-width="0.2"/>
<path fill-rule="evenodd" clip-rule="evenodd" d="M73.5193 14.0001V8.00011H77.8603V14.0001H77.0883V8.73711H74.2903V14.0001H73.5193Z" fill="white"/>
<path fill-rule="evenodd" clip-rule="evenodd" d="M73.5193 14.0001V8.00011H77.8603V14.0001H77.0883V8.73711H74.2903V14.0001H73.5193Z" fill="#10002B" stroke="#10002B" stroke-width="0.2"/>
<path fill-rule="evenodd" clip-rule="evenodd" d="M79.2343 14.0001V8.00011H80.0053V10.5721H83.0053V8.00011H83.7763V14.0001H83.0053V11.2931H80.0053V14.0001H79.2343Z" fill="white"/>
<path fill-rule="evenodd" clip-rule="evenodd" d="M79.2343 14.0001V8.00011H80.0053V10.5721H83.0053V8.00011H83.7763V14.0001H83.0053V11.2931H80.0053V14.0001H79.2343Z" fill="#10002B" stroke="#10002B" stroke-width="0.2"/>
<path fill-rule="evenodd" clip-rule="evenodd" d="M86.2274 12.7223C86.6714 13.1723 87.2144 13.3963 87.8574 13.3963C88.4994 13.3963 89.0434 13.1723 89.4874 12.7223C89.9314 12.2723 90.1544 11.6983 90.1544 11.0003C90.1544 10.3023 89.9314 9.7273 89.4874 9.2783C89.0434 8.8283 88.4994 8.6033 87.8574 8.6033C87.2144 8.6033 86.6714 8.8283 86.2274 9.2783C85.7844 9.7273 85.5614 10.3023 85.5614 11.0003C85.5614 11.6983 85.7844 12.2723 86.2274 12.7223ZM90.0574 13.2243C89.4674 13.8313 88.7344 14.1343 87.8574 14.1343C86.9804 14.1343 86.2474 13.8313 85.6584 13.2243C85.0684 12.6183 84.7744 11.8773 84.7744 11.0003C84.7744 10.1233 85.0684 9.3813 85.6584 8.7753C86.2474 8.1693 86.9804 7.8663 87.8574 7.8663C88.7294 7.8663 89.4604 8.1703 90.0534 8.7793C90.6454 9.3883 90.9414 10.1283 90.9414 11.0003C90.9414 11.8773 90.6464 12.6183 90.0574 13.2243Z" fill="white"/>
<path fill-rule="evenodd" clip-rule="evenodd" d="M86.2274 12.7223C86.6714 13.1723 87.2144 13.3963 87.8574 13.3963C88.4994 13.3963 89.0434 13.1723 89.4874 12.7223C89.9314 12.2723 90.1544 11.6983 90.1544 11.0003C90.1544 10.3023 89.9314 9.7273 89.4874 9.2783C89.0434 8.8283 88.4994 8.6033 87.8574 8.6033C87.2144 8.6033 86.6714 8.8283 86.2274 9.2783C85.7844 9.7273 85.5614 10.3023 85.5614 11.0003C85.5614 11.6983 85.7844 12.2723 86.2274 12.7223ZM90.0574 13.2243C89.4674 13.8313 88.7344 14.1343 87.8574 14.1343C86.9804 14.1343 86.2474 13.8313 85.6584 13.2243C85.0684 12.6183 84.7744 11.8773 84.7744 11.0003C84.7744 10.1233 85.0684 9.3813 85.6584 8.7753C86.2474 8.1693 86.9804 7.8663 87.8574 7.8663C88.7294 7.8663 89.4604 8.1703 90.0534 8.7793C90.6454 9.3883 90.9414 10.1283 90.9414 11.0003C90.9414 11.8773 90.6464 12.6183 90.0574 13.2243Z" fill="#10002B"/>
<path d="M86.2274 12.7223L86.1561 12.7925L86.1562 12.7925L86.2274 12.7223ZM89.4874 9.2783L89.4162 9.34854L89.4162 9.34862L89.4874 9.2783ZM86.2274 9.2783L86.1562 9.20807L86.1562 9.20807L86.2274 9.2783ZM90.0574 13.2243L90.1291 13.294L90.1291 13.294L90.0574 13.2243ZM85.6584 13.2243L85.7301 13.1547L85.73 13.1545L85.6584 13.2243ZM85.6584 8.7753L85.73 8.84506L85.7301 8.845L85.6584 8.7753ZM90.0534 8.7793L90.1251 8.7096L90.125 8.70954L90.0534 8.7793ZM86.1562 12.7925C86.6194 13.262 87.1882 13.4963 87.8574 13.4963V13.2963C87.2405 13.2963 86.7233 13.0826 86.2985 12.6521L86.1562 12.7925ZM87.8574 13.4963C88.5255 13.4963 89.0953 13.262 89.5585 12.7925L89.4162 12.6521C88.9914 13.0826 88.4732 13.2963 87.8574 13.2963V13.4963ZM89.5585 12.7925C90.0229 12.3219 90.2544 11.7217 90.2544 11.0003H90.0544C90.0544 11.6749 89.8398 12.2227 89.4162 12.6521L89.5585 12.7925ZM90.2544 11.0003C90.2544 10.279 90.023 9.67773 89.5585 9.20799L89.4162 9.34862C89.8397 9.77687 90.0544 10.3256 90.0544 11.0003H90.2544ZM89.5585 9.20807C89.0954 8.73866 88.5256 8.5033 87.8574 8.5033V8.7033C88.4731 8.7033 88.9913 8.91795 89.4162 9.34854L89.5585 9.20807ZM87.8574 8.5033C87.1881 8.5033 86.6193 8.73868 86.1562 9.20807L86.2985 9.34854C86.7234 8.91793 87.2406 8.7033 87.8574 8.7033V8.5033ZM86.1562 9.20807C85.6927 9.67779 85.4614 10.279 85.4614 11.0003H85.6614C85.6614 10.3256 85.876 9.77681 86.2985 9.34854L86.1562 9.20807ZM85.4614 11.0003C85.4614 11.7217 85.6928 12.3218 86.1561 12.7925L86.2986 12.6521C85.8759 12.2228 85.6614 11.6749 85.6614 11.0003H85.4614ZM89.9856 13.1546C89.4152 13.7414 88.7085 14.0343 87.8574 14.0343V14.2343C88.7602 14.2343 89.5195 13.9212 90.1291 13.294L89.9856 13.1546ZM87.8574 14.0343C87.0062 14.0343 86.2995 13.7414 85.7301 13.1547L85.5866 13.2939C86.1952 13.9212 86.9545 14.2343 87.8574 14.2343V14.0343ZM85.73 13.1545C85.159 12.568 84.8744 11.8524 84.8744 11.0003H84.6744C84.6744 11.9022 84.9777 12.6686 85.5867 13.2941L85.73 13.1545ZM84.8744 11.0003C84.8744 10.1482 85.159 9.43157 85.73 8.84506L85.5867 8.70554C84.9777 9.33104 84.6744 10.0984 84.6744 11.0003H84.8744ZM85.7301 8.845C86.2995 8.25918 87.0062 7.9663 87.8574 7.9663V7.7663C86.9545 7.7663 86.1953 8.07943 85.5866 8.7056L85.7301 8.845ZM87.8574 7.9663C88.7031 7.9663 89.4081 8.25995 89.9817 8.84907L90.125 8.70954C89.5126 8.08066 88.7556 7.7663 87.8574 7.7663V7.9663ZM89.9816 8.84901C90.555 9.4388 90.8414 10.1536 90.8414 11.0003H91.0414C91.0414 10.103 90.7357 9.3378 90.1251 8.7096L89.9816 8.84901ZM90.8414 11.0003C90.8414 11.8523 90.5558 12.568 89.9856 13.1546L90.1291 13.294C90.7369 12.6686 91.0414 11.9023 91.0414 11.0003H90.8414Z" fill="#10002B"/>
<path fill-rule="evenodd" clip-rule="evenodd" d="M94.8641 13.2628H96.4151C96.7111 13.2628 96.9511 13.1588 97.1351 12.9518C97.3201 12.7458 97.4121 12.5198 97.4121 12.2738C97.4121 12.0278 97.3171 11.8038 97.1271 11.5988C96.9371 11.3958 96.6881 11.2928 96.3811 11.2928H94.8641V13.2628ZM94.8641 10.5728H96.2631C96.5541 10.5728 96.7881 10.4768 96.9641 10.2838C97.1391 10.0908 97.2271 9.8798 97.2271 9.6508C97.2271 9.4218 97.1421 9.2118 96.9711 9.0228C96.8011 8.8328 96.5771 8.7378 96.2981 8.7378H94.8641V10.5728ZM94.0931 13.9998V7.9998H96.2631C96.7331 7.9998 97.1391 8.1558 97.4831 8.4648C97.8271 8.7758 97.9991 9.1648 97.9991 9.6338C97.9991 9.9188 97.9251 10.1708 97.7761 10.3878C97.6291 10.6068 97.4311 10.7708 97.1851 10.8828V10.9158C97.4811 11.0168 97.7241 11.1898 97.9151 11.4358C98.1041 11.6818 98.2001 11.9668 98.2001 12.2908C98.2001 12.7828 98.0191 13.1898 97.6591 13.5138C97.2991 13.8378 96.8731 13.9998 96.3811 13.9998H94.0931Z" fill="white"/>
<path fill-rule="evenodd" clip-rule="evenodd" d="M94.8641 13.2628H96.4151C96.7111 13.2628 96.9511 13.1588 97.1351 12.9518C97.3201 12.7458 97.4121 12.5198 97.4121 12.2738C97.4121 12.0278 97.3171 11.8038 97.1271 11.5988C96.9371 11.3958 96.6881 11.2928 96.3811 11.2928H94.8641V13.2628ZM94.8641 10.5728H96.2631C96.5541 10.5728 96.7881 10.4768 96.9641 10.2838C97.1391 10.0908 97.2271 9.8798 97.2271 9.6508C97.2271 9.4218 97.1421 9.2118 96.9711 9.0228C96.8011 8.8328 96.5771 8.7378 96.2981 8.7378H94.8641V10.5728ZM94.0931 13.9998V7.9998H96.2631C96.7331 7.9998 97.1391 8.1558 97.4831 8.4648C97.8271 8.7758 97.9991 9.1648 97.9991 9.6338C97.9991 9.9188 97.9251 10.1708 97.7761 10.3878C97.6291 10.6068 97.4311 10.7708 97.1851 10.8828V10.9158C97.4811 11.0168 97.7241 11.1898 97.9151 11.4358C98.1041 11.6818 98.2001 11.9668 98.2001 12.2908C98.2001 12.7828 98.0191 13.1898 97.6591 13.5138C97.2991 13.8378 96.8731 13.9998 96.3811 13.9998H94.0931Z" fill="#10002B"/>
<path d="M94.8641 13.2628H94.7641V13.3628H94.8641V13.2628ZM97.1351 12.9518L97.0607 12.885L97.0604 12.8854L97.1351 12.9518ZM97.1271 11.5988L97.2005 11.5308L97.2001 11.5305L97.1271 11.5988ZM94.8641 11.2928V11.1928H94.7641V11.2928H94.8641ZM94.8641 10.5728H94.7641V10.6728H94.8641V10.5728ZM96.9641 10.2838L97.038 10.3512L97.0382 10.351L96.9641 10.2838ZM96.9711 9.0228L96.8966 9.08948L96.897 9.08989L96.9711 9.0228ZM94.8641 8.7378V8.6378H94.7641V8.7378H94.8641ZM94.0931 13.9998H93.9931V14.0998H94.0931V13.9998ZM94.0931 7.9998V7.8998H93.9931V7.9998H94.0931ZM97.4831 8.4648L97.5502 8.39062L97.55 8.39041L97.4831 8.4648ZM97.7761 10.3878L97.6937 10.3312L97.6931 10.3321L97.7761 10.3878ZM97.1851 10.8828L97.1437 10.7918L97.0851 10.8185V10.8828H97.1851ZM97.1851 10.9158H97.0851V10.9873L97.1528 11.0104L97.1851 10.9158ZM97.9151 11.4358L97.9944 11.3749L97.9941 11.3745L97.9151 11.4358ZM94.8641 13.3628H96.4151V13.1628H94.8641V13.3628ZM96.4151 13.3628C96.7376 13.3628 97.0056 13.2481 97.2099 13.0182L97.0604 12.8854C96.8967 13.0695 96.6847 13.1628 96.4151 13.1628V13.3628ZM97.2095 13.0186C97.4089 12.7966 97.5121 12.5475 97.5121 12.2738H97.3121C97.3121 12.4921 97.2314 12.695 97.0607 12.885L97.2095 13.0186ZM97.5121 12.2738C97.5121 11.999 97.405 11.7515 97.2005 11.5308L97.0538 11.6668C97.2293 11.8561 97.3121 12.0566 97.3121 12.2738H97.5121ZM97.2001 11.5305C96.9894 11.3053 96.713 11.1928 96.3811 11.1928V11.3928C96.6633 11.3928 96.8849 11.4863 97.0541 11.6671L97.2001 11.5305ZM96.3811 11.1928H94.8641V11.3928H96.3811V11.1928ZM94.7641 11.2928V13.2628H94.9641V11.2928H94.7641ZM94.8641 10.6728H96.2631V10.4728H94.8641V10.6728ZM96.2631 10.6728C96.5785 10.6728 96.8407 10.5676 97.038 10.3512L96.8902 10.2164C96.7356 10.386 96.5298 10.4728 96.2631 10.4728V10.6728ZM97.0382 10.351C97.2273 10.1424 97.3271 9.9082 97.3271 9.6508H97.1271C97.1271 9.8514 97.0509 10.0392 96.8901 10.2166L97.0382 10.351ZM97.3271 9.6508C97.3271 9.39439 97.2311 9.16106 97.0453 8.95571L96.897 9.08989C97.0532 9.26254 97.1271 9.44921 97.1271 9.6508H97.3271ZM97.0457 8.95612C96.8548 8.74282 96.6026 8.6378 96.2981 8.6378V8.8378C96.5516 8.8378 96.7475 8.92278 96.8966 9.08948L97.0457 8.95612ZM96.2981 8.6378H94.8641V8.8378H96.2981V8.6378ZM94.7641 8.7378V10.5728H94.9641V8.7378H94.7641ZM94.1931 13.9998V7.9998H93.9931V13.9998H94.1931ZM94.0931 8.0998H96.2631V7.8998H94.0931V8.0998ZM96.2631 8.0998C96.7086 8.0998 97.0908 8.24679 97.4163 8.5392L97.55 8.39041C97.1875 8.06482 96.7577 7.8998 96.2631 7.8998V8.0998ZM97.4161 8.53898C97.7389 8.83082 97.8991 9.19278 97.8991 9.6338H98.0991C98.0991 9.13683 97.9154 8.72078 97.5502 8.39062L97.4161 8.53898ZM97.8991 9.6338C97.8991 9.90056 97.8302 10.1324 97.6937 10.3312L97.8586 10.4444C98.0201 10.2092 98.0991 9.93704 98.0991 9.6338H97.8991ZM97.6931 10.3321C97.557 10.5348 97.3738 10.687 97.1437 10.7918L97.2266 10.9738C97.4885 10.8546 97.7013 10.6788 97.8592 10.4435L97.6931 10.3321ZM97.0851 10.8828V10.9158H97.2851V10.8828H97.0851ZM97.1528 11.0104C97.4305 11.1052 97.6572 11.2666 97.8362 11.4971L97.9941 11.3745C97.7911 11.113 97.5318 10.9284 97.2174 10.8212L97.1528 11.0104ZM97.8358 11.4967C98.011 11.7247 98.1001 11.9881 98.1001 12.2908H98.3001C98.3001 11.9455 98.1973 11.6389 97.9944 11.3749L97.8358 11.4967ZM98.1001 12.2908C98.1001 12.7547 97.931 13.1346 97.5922 13.4395L97.726 13.5881C98.1073 13.245 98.3001 12.8109 98.3001 12.2908H98.1001ZM97.5922 13.4395C97.2509 13.7467 96.8489 13.8998 96.3811 13.8998V14.0998C96.8974 14.0998 97.3474 13.9289 97.726 13.5881L97.5922 13.4395ZM96.3811 13.8998H94.0931V14.0998H96.3811V13.8998Z" fill="#10002B"/>
<path d="M11.5442 8.39849C11.2212 8.78796 11.0577 9.28525 11.0866 9.79036V31.717C11.0577 32.2221 11.2212 32.7194 11.5442 33.1089L11.6204 33.1852L23.8994 20.8967V20.6107L11.6204 8.33176L11.5442 8.39849Z" fill="url(#paint0_linear)"/>
<path d="M27.9892 24.9865L23.8994 20.8967V20.6107L27.9892 16.5114L28.075 16.5686L32.9274 19.3237C34.3098 20.1054 34.3098 21.3924 32.9274 22.1837L28.075 24.9388L27.9892 24.9865Z" fill="url(#paint1_linear)"/>
<path d="M28.075 24.9388L23.8994 20.7537L11.506 33.147C12.0875 33.6635 12.956 33.6877 13.5652 33.2042L28.0368 24.9865" fill="url(#paint2_linear)"/>
<path d="M28.075 16.5876L13.6034 8.34129C12.9916 7.86556 12.1286 7.88953 11.5442 8.39849L23.9375 20.7918L28.075 16.5876Z" fill="url(#paint3_linear)"/>
<defs>
<linearGradient id="paint0_linear" x1="18.5138" y1="-6.55947" x2="-1.14671" y2="-1.32852" gradientUnits="userSpaceOnUse">
<stop stop-color="#00A0FF"/>
<stop offset="0.01" stop-color="#00A1FF"/>
<stop offset="0.26" stop-color="#00BEFF"/>
<stop offset="0.51" stop-color="#00D2FF"/>
<stop offset="0.76" stop-color="#00DFFF"/>
<stop offset="1" stop-color="#00E3FF"/>
</linearGradient>
<linearGradient id="paint1_linear" x1="34.7292" y1="10.659" x2="10.7529" y2="10.659" gradientUnits="userSpaceOnUse">
<stop stop-color="#FFE000"/>
<stop offset="0.41" stop-color="#FFBD00"/>
<stop offset="0.78" stop-color="#FFA500"/>
<stop offset="1" stop-color="#FF9C00"/>
</linearGradient>
<linearGradient id="paint2_linear" x1="11.2107" y1="14.3213" x2="-4.6355" y2="40.8721" gradientUnits="userSpaceOnUse">
<stop stop-color="#FF3A44"/>
<stop offset="1" stop-color="#C31162"/>
</linearGradient>
<linearGradient id="paint3_linear" x1="1.92527" y1="5.00057" x2="9.01795" y2="16.8567" gradientUnits="userSpaceOnUse">
<stop stop-color="#32A071"/>
<stop offset="0.07" stop-color="#2DA771"/>
<stop offset="0.48" stop-color="#15CF74"/>
<stop offset="0.8" stop-color="#06E775"/>
<stop offset="1" stop-color="#00F076"/>
</linearGradient>
</defs>
</svg>
